{"title":"Just.Add.Magic.S01E03.Dogs.720p.AMZN.WebRip.x265-RnC.mp4","uid":13336077,"size":169880072,"categoryP":"video","categoryS":"hd___tv_shows","magnet":"?xt=urn:btih:7ec0d665c3e09e8f74466f0ba46b377ef846ae47&amp;dn=Just.Add.Magic.S01E03.Dogs.720p.AMZN.WebRip.x265-RnC.mp4&amp;tr=udp%3A%2F%2Ftracker.leechers-paradise.org%3A6969&amp;tr=udp%3A%2F%2Fzer0day.ch%3A1337&amp;tr=udp%3A%2F%2Fopen.demonii.com%3A1337&amp;tr=udp%3A%2F%2Ftracker.coppersurfer.tk%3A6969&amp;tr=udp%3A%2F%2Fexodus.desync.com%3A6969","seeders":2,"leechers":0,"uploader":"Anon_up","files":1,"time":1453989516,"description":"[center]If you like my work\r\n[color=orange]Donate Bitcoin:[/color] [color=green]1PWLan3jUdKdofaXUuRHMEM6m17E9v2fP6[/color]\r\n\r\n[img]http://i.imgur.com/p94fYT2.png[/img]\r\n\r\nInfo\r\n\r\n[quote]S: TinyE\r\nthanks :)[/quote]\r\n\r\nScreenShots\r\n[img]http://i.imgur.com/o5pGtRZ.jpg[/img]\r\n\r\n\r\n\r\nFor x265 HEVC\r\n[spoiler] Install Latest K-lite on a dual core+ machine\r\nplay and then rate about quality\r\n[/spoiler]\r\n\r\nMediaInfo\r\n[spoiler]\r\n\r\nGeneral\r\nComplete name : Just.Add.Magic.S01E03.Dogs.720p.AMZN.WebRip.x265-RnC.mp4\r\nFormat : MPEG-4\r\nFormat profile : Base Media\r\nCodec ID : isom (isom/iso2/mp41)\r\nFile size : 162 MiB\r\nDuration : 24mn 43s\r\nOverall bit rate : 916 Kbps\r\nMovie name : RnC | Just Add Magic\r\nPerformer : Just Add Magic\r\nWriting application : Lavf56.40.101\r\nComment : ReiNCarnate\r\n\r\nVideo\r\nID : 1\r\nFormat : HEVC\r\nFormat/Info : High Efficiency Video Coding\r\nFormat profile :   @Main\r\nCodec ID : hev1\r\nCodec ID/Info : High Efficiency Video Coding\r\nDuration : 24mn 41s\r\nBit rate : 861 Kbps\r\nWidth : 1 280 pixels\r\nHeight : 720 pixels\r\nDisplay aspect ratio : 16:9\r\nFrame rate mode : Constant\r\nFrame rate : 25.000 fps\r\nColor space : YUV\r\nChroma subsampling : 4:2:0\r\nBit depth : 8 bits\r\nScan type : Progressive\r\nBits/(Pixel*Frame) : 0.037\r\nStream size : 152 MiB (94%)\r\nWriting library : x265 1.8+191-375ce77b8c35:[Linux][GCC 4.9.2][64 bit] 8bit\r\nEncoding settings : wpp / ctu=64 / min-cu-size=8 / max-tu-size=32 / tu-intra-depth=1 / tu-inter-depth=1 / me=1 / subme=2 / merange=57 / no-rect / no-amp / max-merge=2 / temporal-mvp / no-early-skip / rdpenalty=0 / no-tskip / no-tskip-fast / strong-intra-smoothing / no-lossless / no-cu-lossless / no-constrained-intra / no-fast-intra / open-gop / no-temporal-layers / interlace=0 / keyint=250 / min-keyint=25 / scenecut=40 / rc-lookahead=20 / lookahead-slices=4 / bframes=4 / bframe-bias=0 / b-adapt=2 / ref=3 / limit-refs=3 / no-limit-modes / weightp / no-weightb / aq-mode=1 / qg-size=32 / aq-strength=1.00 / cbqpoffs=0 / crqpoffs=0 / rd=3 / psy-rd=0.30 / rdoq-level=0 / psy-rdoq=0.00 / signhide / deblock / sao / no-sao-non-deblock / b-pyramid / cutree / no-intra-refresh / rc=abr / bitrate=908 / qcomp=0.60 / qpmin=0 / qpmax=51 / qpstep=4 / ipratio=1.40 / pbratio=1.30\r\n\r\nAudio\r\nID : 2\r\nFormat : AAC\r\nFormat/Info : Advanced Audio Codec\r\nFormat profile : LC\r\nCodec ID : 40\r\nDuration : 24mn 43s\r\nBit rate mode : Constant\r\nBit rate : 48.0 Kbps\r\nChannel(s) : 2 channels\r\nChannel(s)_Original : 1 channel\r\nChannel positions : Front: C\r\nSampling rate : 44.1 KHz\r\nFrame rate : 43.066 fps (1024 spf)\r\nCompression mode : Lossy\r\nStream size : 8.47 MiB (5%)\r\nDefault : Yes\r\nAlternate group : 1\r\n\r\n\r\n[/spoiler]\r\nIf you like my work\r\nDonate Bitcoin: 1PWLan3jUdKdofaXUuRHMEM6m17E9v2fP6\r\n\r\n[/center]","torrent":{"xt":"urn:btih:7ec0d665c3e09e8f74466f0ba46b377ef846ae47","amp;dn":"Just.Add.Magic.S01E03.Dogs.720p.AMZN.WebRip.x265-RnC.mp4","amp;tr":["udp%3A%2F%2Ftracker.leechers-paradise.org%3A6969","udp%3A%2F%2Fzer0day.ch%3A1337","udp%3A%2F%2Fopen.demonii.com%3A1337","udp%3A%2F%2Ftracker.coppersurfer.tk%3A6969","udp%3A%2F%2Fexodus.desync.com%3A6969"],"infoHash":"7ec0d665c3e09e8f74466f0ba46b377ef846ae47","infoHashBuffer":{"type":"Buffer","data":[126,192,214,101,195,224,158,143,116,70,111,11,164,107,55,126,248,70,174,71]},"announce":[],"urlList":[]}}